{
    "asset" : {
        "generator" : "Khronos glTF Blender I/O v1.4.40",
        "version" : "2.0"
    },
    "scene" : 0,
    "scenes" : [
        {
            "name" : "Scene",
            "nodes" : [
                0
            ]
        }
    ],
    "nodes" : [
        {
            "mesh" : 0,
            "name" : "Torus.001",
            "scale" : [
                1.0029600858688354,
                0.7106760740280151,
                1.026314616203308
            ]
        }
    ],
    "materials" : [
        {
            "doubleSided" : true,
            "name" : "Material.001",
            "pbrMetallicRoughness" : {
                "baseColorFactor" : [
                    0.710554301738739,
                    0.6516011953353882,
                    0.6955367922782898,
                    1
                ],
                "metallicFactor" : 0,
                "roughnessFactor" : 0.5
            }
        }
    ],
    "meshes" : [
        {
            "name" : "Torus.001",
            "primitives" : [
                {
                    "attributes" : {
                        "POSITION" : 0,
                        "NORMAL" : 1,
                        "TEXCOORD_0" : 2
                    },
                    "indices" : 3,
                    "material" : 0
                }
            ]
        }
    ],
    "accessors" : [
        {
            "bufferView" : 0,
            "componentType" : 5126,
            "count" : 1547,
            "max" : [
                1.9808616638183594,
                0.25,
                -0.008444082923233509
            ],
            "min" : [
                -1.9808616638183594,
                -0.25,
                -2.4429006576538086
            ],
            "type" : "VEC3"
        },
        {
            "bufferView" : 1,
            "componentType" : 5126,
            "count" : 1547,
            "type" : "VEC3"
        },
        {
            "bufferView" : 2,
            "componentType" : 5126,
            "count" : 1547,
            "type" : "VEC2"
        },
        {
            "bufferView" : 3,
            "componentType" : 5123,
            "count" : 8772,
            "type" : "SCALAR"
        }
    ],
    "bufferViews" : [
        {
            "buffer" : 0,
            "byteLength" : 18564,
            "byteOffset" : 0
        },
        {
            "buffer" : 0,
            "byteLength" : 18564,
            "byteOffset" : 18564
        },
        {
            "buffer" : 0,
            "byteLength" : 12376,
            "byteOffset" : 37128
        },
        {
            "buffer" : 0,
            "byteLength" : 17544,
            "byteOffset" : 49504
        }
    ],
    "buffers" : [
        {
            "byteLength" : 67048,
            "uri" : "data:application/octet-stream;base64,"
        }
    ]
}
