{
 "accessors": [
  {
   "componentType": 5126,
   "type": "VEC3",
   "count": 15922,
   "max": [
    1.9391130208969116,
    1.485172986984253,
    0.25
   ],
   "min": [
    -1.9336440563201904,
    -1.014827013015747,
    -0.25
   ],
   "bufferView": 0
  },
  {
   "componentType": 5126,
   "type": "VEC3",
   "count": 15922,
   "bufferView": 1
  },
  {
   "componentType": 5126,
   "type": "VEC2",
   "count": 15922,
   "bufferView": 2
  },
  {
   "componentType": 5123,
   "type": "SCALAR",
   "count": 22278,
   "bufferView": 3
  }
 ],
 "asset": {
  "version": "2.0",
  "generator": "clara.io"
 },
 "bufferViews": [
  {
   "buffer": 0,
   "byteOffset": 0,
   "byteLength": 191064,
   "target": 34962,
   "byteStride": 12
  },
  {
   "buffer": 0,
   "byteOffset": 191064,
   "byteLength": 191064,
   "target": 34962,
   "byteStride": 12
  },
  {
   "buffer": 0,
   "byteOffset": 382128,
   "byteLength": 127376,
   "target": 34962,
   "byteStride": 8
  },
  {
   "buffer": 0,
   "byteOffset": 509504,
   "byteLength": 44556,
   "target": 34963
  }
 ],
 "buffers": [
  {
   "byteLength": 554060,
   "uri": "data:application/octet-stream;base64,"
  }
 ],
 "materials": [
  {
   "name": "defaultMat",
   "pbrMetallicRoughness": {
    "baseColorFactor": [
     0.9176470588235294,
     0.6980392156862745,
     0.10980392156862745,
     1
    ],
    "roughnessFactor": 0.45,
    "metallicFactor": 0.95
   }
  }
 ],
 "meshes": [
  {
   "primitives": [
    {
     "indices": 3,
     "material": 0,
     "mode": 4,
     "attributes": {
      "POSITION": 0,
      "NORMAL": 1,
      "TEXCOORD_0": 2
     }
    }
   ]
  }
 ],
 "nodes": [
  {
   "name": "xrlab logo_root",
   "children": [
    1
   ]
  },
  {
   "name": "default",
   "mesh": 0
  }
 ],
 "scene": 0,
 "scenes": [
  {
   "nodes": [
    0
   ]
  }
 ]
}